<svg width="86" height="47" viewBox="0 0 86 47" fill="none" xmlns="http://www.w3.org/2000/svg">
<path d="M54.5742 1.79984C56.6177 -0.447176 60.0954 -0.612411 62.3428 1.43069C64.5902 3.47412 64.7562 6.95278 62.7129 9.20023L50.0049 23.1758L62.7129 37.1514C64.7563 39.3988 64.5902 42.8775 62.3428 44.9209C60.0954 46.9641 56.6177 46.7989 54.5742 44.5518L42.5713 31.3506L30.5693 44.5518C28.5259 46.7992 25.0472 46.9644 22.7998 44.9209C20.5524 42.8774 20.3872 39.3988 22.4307 37.1514L35.1377 23.1758L22.4307 9.20023C20.3872 6.95279 20.5524 3.47417 22.7998 1.43069C25.0472 -0.612743 28.5258 -0.447481 30.5693 1.79984L42.5713 15L54.5742 1.79984Z" fill="#E6222B"/>
</svg>
