<svg width="366" height="100" viewBox="0 0 366 100" fill="none" xmlns="http://www.w3.org/2000/svg">
<g clip-path="url(#clip0_12_508)">
<path d="M67.8309 21.9234C53.6157 9.88968 39.5345 4.18448 25.7114 10.5675C18.5898 13.8559 13.0346 19.7991 9.88989 27.0355C4.18462 40.1688 4.20262 58.9366 18.2218 80.9343C1.412 63.6634 -5.32751 36.5173 4.68273 16.8114C7.6674 10.9367 12.3324 6.06671 18.1898 3.12333C35.0315 -5.33965 55.14 4.21474 67.8309 21.9234Z" fill="#E6222B"/>
<path d="M47.9107 1.04736C69.8016 7.60996 85.3071 25.7141 88.8779 56.1183C91.3244 89.2056 64.1103 105.538 34.1656 79.0641C19.4943 61.2425 11.8006 42.4101 20.6666 21.179C0.506078 44.7946 19.1723 85.2313 48.1147 96.7406C76.3771 107.154 100.454 84.7209 94.8572 49.0271C88.0637 18.4978 69.9376 1.05543 47.9107 1.04736Z" fill="#FFFEF8"/>
<path d="M97.0754 25.9785H111.663L123.315 41.0485L134.99 25.9785H149.555V56.1184H137.903V40.0398L126.228 56.1184H120.403L108.728 40.0398V56.1184H97.0754V25.9785Z" fill="#E6222B"/>
<path d="M166.477 26.0229H180.33L196.364 56.1629H183.245L180.888 51.0044H165.923L163.566 56.1629H150.448L166.481 26.0229H166.477ZM169.302 43.651H177.508L173.417 34.7482L169.304 43.651H169.302Z" fill="#E6222B"/>
<path d="M226.404 25.9785H238.079V56.1184H224.96L208.905 37.7077V56.1184H197.252V25.9785H213.286L226.404 41.9462V25.9785Z" fill="#E6222B"/>
<path d="M272.703 25.9785H284.378V42.1701C284.422 53.5624 275.172 56.8366 263.965 56.8588C252.756 56.8366 243.506 53.5624 243.552 42.1701V25.9785H255.205V41.4298C255.161 46.3865 259.186 47.2378 263.967 47.3044C268.726 47.2378 272.773 46.3845 272.707 41.4298V25.9785H272.703Z" fill="#E6222B"/>
<path d="M289.625 26.0229H324.602V33.7375H301.275V37.5947H324.602V44.5689H301.275V48.4261H324.602V56.1629H289.625V26.0229Z" fill="#E6222B"/>
<path d="M342.436 25.9786V46.5641H365.764V56.1165H330.786V25.9766H342.438L342.436 25.9786Z" fill="#E6222B"/>
<path d="M106.792 74.6583V70.0909H101.287V74.6583H99.1741V63.3608H101.287V68.1219H106.792V63.3608H108.888V74.6583H106.792Z" fill="#FFFEF8"/>
<path d="M121.387 72.5118H115.529L114.569 74.6421H112.281L117.306 63.3447H119.61L124.636 74.6421H122.331L121.387 72.5118ZM118.458 65.7172L116.378 70.5267H120.539L118.458 65.7172Z" fill="#FFFEF8"/>
<path d="M135.518 63.3281H137.631V74.6417H136.318V74.6578L130.429 67.024V74.6417H128.317V63.3443H130.029L135.518 70.3487V63.3281Z" fill="#FFFEF8"/>
<path d="M151.986 68.8966C152.034 71.7532 150.306 74.6421 146.385 74.6421H141.984V63.3447H146.385C150.225 63.3447 151.938 66.1045 151.986 68.8966ZM144.08 72.5925H146.385C148.929 72.5925 149.937 70.7203 149.889 68.8805C149.841 67.1213 148.817 65.3621 146.385 65.3621H144.08V72.5925Z" fill="#FFFEF8"/>
<path d="M159.828 68.0089L162.804 63.3447H165.349V63.4416L160.884 69.9779V74.6421H158.771V69.9779L154.466 63.4416V63.3447H156.979L159.828 68.0089Z" fill="#FFFEF8"/>
<path d="M178.6 66.4596L174.951 71.3659H174.535L170.966 66.4434V74.6583H168.854V63.3608H171.286L174.791 68.2187L178.296 63.3608H180.712V74.6583H178.6V66.4596Z" fill="#FFFEF8"/>
<path d="M193.211 72.5118H187.354L186.393 74.6421H184.105L189.13 63.3447H191.435L196.46 74.6421H194.155L193.211 72.5118ZM190.282 65.7172L188.202 70.5267H192.363L190.282 65.7172Z" fill="#FFFEF8"/>
<path d="M207.342 63.3281H209.455V74.6417H208.142V74.6578L202.253 67.024V74.6417H200.141V63.3443H201.853L207.342 70.3487V63.3281Z" fill="#FFFEF8"/>
<path d="M228.611 71.3496C228.611 72.0113 228.899 72.5761 229.619 72.5761V74.6904C228.787 74.6904 227.859 74.4967 227.507 73.2056C226.77 74.416 225.49 74.7872 224.306 74.7872C221.857 74.7872 219.873 73.9964 219.857 71.2043C219.857 70.2521 220.545 69.203 221.585 68.848C220.577 68.5252 220.081 67.4439 220.081 66.5562C220.097 64.1515 222.353 63.167 224.354 63.167C226.354 63.167 228.435 63.9255 228.451 66.3626H226.45C226.45 65.3296 225.442 64.9746 224.306 64.9746C222.658 64.9746 222.113 65.8945 222.129 66.5562C222.129 67.7021 223.538 68.0249 224.29 68.0249H229.539V69.7034H228.611V71.3496ZM221.937 71.2204C221.937 72.4147 223.106 72.8828 224.274 72.8828C225.026 72.8828 226.61 72.4793 226.61 71.3334V69.7034H224.178C222.626 69.7034 221.937 70.5426 221.937 71.2204Z" fill="#FFFEF8"/>
<path d="M249.64 74.6417H247.127L243.862 70.8651H241.83V74.6417H239.718V63.3281C241.494 63.3281 243.27 63.3443 245.047 63.3443C247.687 63.3604 249.08 65.1357 249.08 67.0885C249.08 68.6379 248.375 70.2034 246.247 70.6392L249.64 74.4964V74.6417ZM241.83 65.3294V68.9446H245.047C246.391 68.9446 246.967 68.0408 246.967 67.137C246.967 66.2332 246.375 65.3294 245.047 65.3294H241.83Z" fill="#E6222B"/>
<path d="M261.418 74.6421H253.032V63.3447H261.418V65.4105H255.129V68.0089H261.194V69.9941H255.129V72.5441H261.418V74.6421Z" fill="#E6222B"/>
<path d="M275.374 66.4596L271.725 71.3659H271.309L267.74 66.4434V74.6583H265.627V63.3608H268.06L271.565 68.2187L275.07 63.3608H277.486V74.6583H275.374V66.4596Z" fill="#E6222B"/>
<path d="M293.041 69.0579C293.009 71.9791 291.233 74.9002 287.296 74.9002C283.359 74.9002 281.535 72.0436 281.535 69.074C281.535 66.1044 283.423 63.1187 287.296 63.1187C291.169 63.1187 293.074 66.1044 293.041 69.0579ZM283.615 69.1063C283.663 70.9623 284.656 72.9474 287.296 72.9474C289.937 72.9474 290.929 70.9462 290.961 69.0901C290.993 67.1857 289.937 65.0554 287.296 65.0554C284.656 65.0554 283.567 67.2019 283.615 69.1063Z" fill="#E6222B"/>
<path d="M307.012 68.8966C307.061 71.7532 305.332 74.6421 301.411 74.6421H297.01V63.3447H301.411C305.252 63.3447 306.964 66.1045 307.012 68.8966ZM299.107 72.5925H301.411C303.956 72.5925 304.964 70.7203 304.916 68.8805C304.868 67.1213 303.844 65.3621 301.411 65.3621H299.107V72.5925Z" fill="#E6222B"/>
<path d="M319.317 74.6421H310.931V63.3447H319.317V65.4105H313.028V68.0089H319.093V69.9941H313.028V72.5441H319.317V74.6421Z" fill="#E6222B"/>
<path d="M325.623 63.3447V72.6732H331.384V74.6421H323.51V63.3447H325.623Z" fill="#E6222B"/>
<path d="M335.449 74.6421V63.3447H337.545V74.6421H335.449Z" fill="#E6222B"/>
<path d="M349.452 63.3281H351.565V74.6417H350.252V74.6578L344.363 67.024V74.6417H342.25V63.3443H343.963L349.452 70.3487V63.3281Z" fill="#E6222B"/>
<path d="M364.383 66.1046C363.631 65.3783 362.511 64.9748 361.535 64.9748C359.134 64.9748 357.678 66.8147 357.678 69.1387C357.678 70.9947 358.75 72.9153 361.535 72.9153C362.415 72.9153 363.183 72.7216 364.063 72.0115V70.0102H361.199V68.1058H366V72.8669C364.896 74.1419 363.503 74.9004 361.535 74.9004C357.326 74.9004 355.614 72.1083 355.614 69.1387C355.614 65.9593 357.582 63.022 361.535 63.022C363.039 63.022 364.544 63.603 365.696 64.7489L364.383 66.1046Z" fill="#E6222B"/>
<path d="M39.2988 14.8462V27.0232L73.2304 49.029L83.6748 43.2592L39.2988 14.8462Z" fill="#E6222B"/>
<path d="M51.0234 41.6982V73.7708H61.3758V47.6314L51.0234 41.6982Z" fill="#E6222B"/>
<path d="M73.3225 41.6982V73.7708H83.6748V43.2153L73.3225 41.6982Z" fill="#E6222B"/>
<path d="M28.9902 21.1787V73.7702H39.3426V27.1119L28.9902 21.1787Z" fill="#E6222B"/>
</g>
<defs>
<clipPath id="clip0_12_508">
<rect width="366" height="99.3023" fill="white"/>
</clipPath>
</defs>
</svg>
