<svg width="244" height="66" viewBox="0 0 244 66" fill="none" xmlns="http://www.w3.org/2000/svg">
<g clip-path="url(#clip0_12_949)">
<path d="M45.2207 14.5707C35.7439 6.57265 26.3564 2.78076 17.141 7.02317C12.3933 9.20873 8.68981 13.1588 6.59334 17.9684C2.78983 26.6973 2.80183 39.1711 12.1479 53.7915C0.941412 42.3126 -3.55159 24.2704 3.1219 11.1731C5.11168 7.26854 8.22171 4.03176 12.1266 2.07548C23.3544 -3.54933 36.7601 2.80088 45.2207 14.5707Z" fill="#E6222B"/>
<path d="M31.9403 0.695892C46.5342 5.05763 56.8712 17.0903 59.2518 37.2981C60.8828 59.2891 42.7401 70.1445 22.7769 52.5487C12.9961 40.7038 7.86691 28.1871 13.7776 14.0761C0.337222 29.7719 12.7813 56.6477 32.0763 64.2971C50.9179 71.2185 66.9695 56.3084 63.238 32.585C58.709 12.2941 46.6249 0.701256 31.9403 0.695892Z" fill="#17161E"/>
<path d="M64.717 17.2662H74.4419L82.2103 27.2822L89.9934 17.2662H99.7035V37.2983H91.9351V26.6118L84.1521 37.2983H80.2685L72.4855 26.6118V37.2983H64.717V17.2662Z" fill="#E6222B"/>
<path d="M110.985 17.2955H120.22L130.909 37.3276H122.163L120.592 33.899H110.615L109.044 37.3276H100.298L110.987 17.2955H110.985ZM112.868 29.0117H118.338L115.611 23.0946L112.869 29.0117H112.868Z" fill="#E6222B"/>
<path d="M150.936 17.266H158.719V37.2981H149.973L139.27 25.0616V37.2981H131.501V17.266H142.19L150.936 27.8787V17.266Z" fill="#E6222B"/>
<path d="M181.802 17.266H189.585V28.0275C189.614 35.5992 183.448 37.7754 175.977 37.7901C168.504 37.7754 162.338 35.5992 162.368 28.0275V17.266H170.137V27.5354C170.107 30.8299 172.791 31.3957 175.978 31.4399C179.151 31.3957 181.849 30.8285 181.805 27.5354V17.266H181.802Z" fill="#E6222B"/>
<path d="M193.083 17.2955H216.402V22.4228H200.85V24.9865H216.402V29.6218H200.85V32.1854H216.402V37.3276H193.083V17.2955Z" fill="#E6222B"/>
<path d="M228.291 17.266V30.9479H243.842V37.2967H220.524V17.2646H228.292L228.291 17.266Z" fill="#E6222B"/>
<path d="M71.1946 49.6203V46.5847H67.5244V49.6203H66.1161V42.1116H67.5244V45.276H71.1946V42.1116H72.5922V49.6203H71.1946Z" fill="#17161E"/>
<path d="M80.9247 48.1937H77.0198L76.3797 49.6096H74.854L78.2041 42.1009H79.7404L83.0905 49.6096H81.5542L80.9247 48.1937ZM78.9723 43.6777L77.5853 46.8743H80.3592L78.9723 43.6777Z" fill="#17161E"/>
<path d="M90.3455 42.0902H91.7538V49.6096H90.879V49.6203L86.9527 44.5466V49.6096H85.5444V42.1009H86.686L90.3455 46.7563V42.0902Z" fill="#17161E"/>
<path d="M101.324 45.7909C101.356 47.6895 100.204 49.6096 97.5898 49.6096H94.6558V42.1009H97.5898C100.15 42.1009 101.292 43.9352 101.324 45.7909ZM96.0534 48.2473H97.5898C99.2861 48.2473 99.9583 47.003 99.9263 45.7802C99.8943 44.611 99.2114 43.4418 97.5898 43.4418H96.0534V48.2473Z" fill="#17161E"/>
<path d="M106.552 45.2009L108.536 42.1009H110.233V42.1653L107.256 46.5096V49.6096H105.848V46.5096L102.978 42.1653V42.1009H104.653L106.552 45.2009Z" fill="#17161E"/>
<path d="M119.067 44.1712L116.634 47.4321H116.357L113.978 44.1604V49.6203H112.569V42.1116H114.191L116.527 45.3404L118.864 42.1116H120.475V49.6203H119.067V44.1712Z" fill="#17161E"/>
<path d="M128.808 48.1937H124.903L124.262 49.6096H122.737L126.087 42.1009H127.623L130.973 49.6096H129.437L128.808 48.1937ZM126.855 43.6777L125.468 46.8743H128.242L126.855 43.6777Z" fill="#17161E"/>
<path d="M138.228 42.0902H139.637V49.6096H138.762V49.6203L134.835 44.5466V49.6096H133.427V42.1009H134.569L138.228 46.7563V42.0902Z" fill="#17161E"/>
<path d="M152.407 47.4214C152.407 47.8612 152.599 48.2366 153.08 48.2366V49.6418C152.525 49.6418 151.906 49.5131 151.671 48.6549C151.18 49.4594 150.327 49.7061 149.537 49.7061C147.905 49.7061 146.582 49.1805 146.571 47.3248C146.571 46.6919 147.03 45.9947 147.724 45.7587C147.052 45.5442 146.721 44.8255 146.721 44.2355C146.731 42.6373 148.236 41.9829 149.569 41.9829C150.903 41.9829 152.29 42.4871 152.301 44.1068H150.967C150.967 43.4203 150.295 43.1843 149.537 43.1843C148.438 43.1843 148.076 43.7957 148.086 44.2355C148.086 44.9971 149.025 45.2117 149.527 45.2117H153.026V46.3272H152.407V47.4214ZM147.958 47.3355C147.958 48.1293 148.737 48.4404 149.516 48.4404C150.018 48.4404 151.074 48.1722 151.074 47.4106V46.3272H149.452C148.417 46.3272 147.958 46.885 147.958 47.3355Z" fill="#17161E"/>
<path d="M166.427 49.6096H164.752L162.575 47.0996H161.22V49.6096H159.812V42.0902C160.996 42.0902 162.18 42.1009 163.365 42.1009C165.125 42.1116 166.053 43.2916 166.053 44.5895C166.053 45.6193 165.584 46.6598 164.165 46.9494L166.427 49.5131V49.6096ZM161.22 43.4203V45.8231H163.365C164.261 45.8231 164.645 45.2224 164.645 44.6217C164.645 44.021 164.25 43.4203 163.365 43.4203H161.22Z" fill="#E6222B"/>
<path d="M174.279 49.6096H168.688V42.1009H174.279V43.4739H170.086V45.2009H174.13V46.5203H170.086V48.2151H174.279V49.6096Z" fill="#E6222B"/>
<path d="M183.582 44.1712L181.15 47.4321H180.872L178.493 44.1604V49.6203H177.085V42.1116H178.707L181.043 45.3404L183.38 42.1116H184.991V49.6203H183.582V44.1712Z" fill="#E6222B"/>
<path d="M195.361 45.8982C195.34 47.8397 194.155 49.7812 191.531 49.7812C188.906 49.7812 187.69 47.8826 187.69 45.9089C187.69 43.9352 188.949 41.9507 191.531 41.9507C194.113 41.9507 195.382 43.9352 195.361 45.8982ZM189.077 45.9303C189.109 47.1639 189.77 48.4833 191.531 48.4833C193.291 48.4833 193.953 47.1532 193.974 45.9196C193.995 44.6539 193.291 43.2379 191.531 43.2379C189.77 43.2379 189.045 44.6646 189.077 45.9303Z" fill="#E6222B"/>
<path d="M204.675 45.7909C204.707 47.6895 203.555 49.6096 200.941 49.6096H198.007V42.1009H200.941C203.502 42.1009 204.643 43.9352 204.675 45.7909ZM199.405 48.2473H200.941C202.637 48.2473 203.309 47.003 203.277 45.7802C203.245 44.611 202.563 43.4418 200.941 43.4418H199.405V48.2473Z" fill="#E6222B"/>
<path d="M212.878 49.6096H207.288V42.1009H212.878V43.4739H208.685V45.2009H212.729V46.5203H208.685V48.2151H212.878V49.6096Z" fill="#E6222B"/>
<path d="M217.082 42.1009V48.301H220.923V49.6096H215.674V42.1009H217.082Z" fill="#E6222B"/>
<path d="M223.633 49.6096V42.1009H225.03V49.6096H223.633Z" fill="#E6222B"/>
<path d="M232.968 42.0902H234.376V49.6096H233.502V49.6203L229.575 44.5466V49.6096H228.167V42.1009H229.309L232.968 46.7563V42.0902Z" fill="#E6222B"/>
<path d="M242.922 43.9352C242.421 43.4525 241.674 43.1843 241.023 43.1843C239.423 43.1843 238.452 44.4072 238.452 45.9518C238.452 47.1854 239.167 48.4619 241.023 48.4619C241.61 48.4619 242.122 48.3331 242.709 47.8612V46.5311H240.799V45.2653H244V48.4297C243.264 49.2771 242.336 49.7812 241.023 49.7812C238.217 49.7812 237.076 47.9255 237.076 45.9518C237.076 43.8387 238.388 41.8864 241.023 41.8864C242.026 41.8864 243.029 42.2726 243.797 43.0342L242.922 43.9352Z" fill="#E6222B"/>
<path d="M26.1991 9.86722V17.9605L48.8202 32.5864L55.7831 28.7516L26.1991 9.86722Z" fill="#E6222B"/>
<path d="M34.0155 27.7137V49.0304H40.917V31.6571L34.0155 27.7137Z" fill="#E6222B"/>
<path d="M48.8816 27.7137V49.0304H55.7831V28.7221L48.8816 27.7137Z" fill="#E6222B"/>
<path d="M19.3269 14.0761V49.0304H26.2285V18.0195L19.3269 14.0761Z" fill="#E6222B"/>
</g>
<defs>
<clipPath id="clip0_12_949">
<rect width="244" height="66" fill="white"/>
</clipPath>
</defs>
</svg>
