<svg width="34" height="34" viewBox="0 0 34 34" fill="none" xmlns="http://www.w3.org/2000/svg">
<path d="M5.7375 29.75C5.3125 29.75 4.95833 29.6083 4.675 29.325C4.39167 29.0417 4.25 28.6875 4.25 28.2625V22.525C4.25 22.2181 4.35625 21.9406 4.56875 21.6927C4.78125 21.4448 5.05278 21.2736 5.38333 21.1792L10.2708 20.1875C10.6014 20.1403 10.9378 20.1698 11.2802 20.276C11.6226 20.3823 11.9 20.5417 12.1125 20.7542L15.4417 24.0833C16.3389 23.5639 17.1889 22.9913 17.9917 22.3656C18.7944 21.7399 19.5618 21.0611 20.2938 20.3292C21.0729 19.5736 21.7872 18.7885 22.4365 17.974C23.0858 17.1594 23.6465 16.3153 24.1187 15.4417L20.6833 11.9708C20.4944 11.7819 20.3646 11.5576 20.2938 11.2979C20.2229 11.0382 20.2111 10.7194 20.2583 10.3417L21.1792 5.38333C21.2264 5.07639 21.3799 4.81076 21.6396 4.58646C21.8993 4.36215 22.1944 4.25 22.525 4.25H28.2625C28.6875 4.25 29.0417 4.39167 29.325 4.675C29.6083 4.95833 29.75 5.3125 29.75 5.7375C29.75 8.68889 29.1066 11.6049 27.8198 14.4854C26.533 17.366 24.709 19.9868 22.3479 22.3479C19.9868 24.709 17.366 26.533 14.4854 27.8198C11.6049 29.1066 8.68889 29.75 5.7375 29.75ZM25.4292 12.75C25.8306 11.8292 26.1375 10.8965 26.35 9.95208C26.5625 9.00764 26.7278 8.05139 26.8458 7.08333H23.7292L23.0917 10.4125L25.4292 12.75ZM12.75 25.3583L10.4125 23.0208L7.08333 23.7292V26.8458C8.05139 26.775 9.00764 26.6097 9.95208 26.35C10.8965 26.0903 11.8292 25.7597 12.75 25.3583Z" fill="#FFFEF8"/>
</svg>
